<?xml version="1.0" encoding="UTF-8" standalone="no"?><!DOCTYPE svg PUBLIC "-//W3C//DTD SVG 1.1//EN" "http://www.w3.org/Graphics/SVG/1.1/DTD/svg11.dtd"><svg width="100%" height="100%" viewBox="0 0 960 200" version="1.1" xmlns="http://www.w3.org/2000/svg" xmlns:xlink="http://www.w3.org/1999/xlink" xml:space="preserve" xmlns:serif="http://www.serif.com/" style="fill-rule:evenodd;clip-rule:evenodd;stroke-linejoin:round;stroke-miterlimit:1.41421;"><g id="Small-Logo-Light" serif:id="Small Logo Light"><g id="Icon"><path id="Hand" d="M0,199c0,0 45.039,-22.016 108.473,-7.374c119.306,27.539 190.923,-27.03 166.902,-122.276c-9.779,58.796 -68.862,92.545 -113.282,78.012c-1.816,-0.608 -2.946,-2.419 -2.693,-4.317c0.253,-1.898 1.817,-3.35 3.729,-3.46c32.828,-2.526 69.088,-29.012 56.001,-44.272c-10.272,11.828 -42.792,15.421 -71.764,20.328c-86.657,14.678 -147.366,83.359 -147.366,83.359Z" style="fill:#f47171;"/><path id="Ball" d="M187.757,-1c49.583,0 89.838,40.255 89.838,89.839c0,49.583 -40.255,89.838 -89.838,89.838c-49.584,0 -89.839,-40.255 -89.839,-89.838c0,-25.086 10.304,-47.783 26.906,-64.088c16.214,-15.924 38.435,-25.751 62.933,-25.751Z" style="fill:url(#_Linear1);"/><clipPath id="_clip2"><path d="M187.757,-1c49.583,0 89.838,40.255 89.838,89.839c0,49.583 -40.255,89.838 -89.838,89.838c-49.584,0 -89.839,-40.255 -89.839,-89.838c0,-25.086 10.304,-47.783 26.906,-64.088c16.214,-15.924 38.435,-25.751 62.933,-25.751Z"/></clipPath><g clip-path="url(#_clip2)"><path id="Blue-Hand" serif:id="Blue Hand" d="M6.123,199c0.032,-0.222 80.145,-12.923 102.35,-7.374c117.862,29.456 190.923,-27.887 166.902,-122.276c-9.779,58.796 -68.862,92.545 -113.282,78.012c-1.816,-0.608 -2.946,-2.419 -2.693,-4.317c0.253,-1.898 1.817,-3.35 3.729,-3.46c32.828,-2.526 69.088,-29.012 56.001,-44.272c-10.272,11.828 -42.792,15.421 -71.764,20.328c-86.657,14.678 -141.248,82.637 -141.243,83.359Z" style="fill:#4b54a5;"/></g></g><g id="Myonic"><path d="M426.996,99.522c1.199,2.278 2.354,4.646 3.463,7.104c1.109,2.458 2.173,4.976 3.192,7.554c1.019,-2.638 2.098,-5.201 3.237,-7.689c1.14,-2.488 2.309,-4.901 3.508,-7.239l33.633,-66.187c0.599,-1.139 1.214,-2.024 1.843,-2.653c0.63,-0.63 1.334,-1.094 2.114,-1.394c0.779,-0.3 1.663,-0.48 2.652,-0.54c0.99,-0.06 2.144,-0.09 3.463,-0.09l23.201,0l0,131.026l-26.798,0l0,-75.36c0,-3.657 0.179,-7.614 0.539,-11.871l-34.712,67.357c-1.079,2.098 -2.533,3.687 -4.362,4.766c-1.828,1.079 -3.911,1.618 -6.25,1.618l-4.136,0c-2.338,0 -4.422,-0.539 -6.25,-1.618c-1.829,-1.079 -3.283,-2.668 -4.362,-4.766l-34.892,-67.446c0.24,2.098 0.42,4.181 0.54,6.25c0.12,2.068 0.18,3.971 0.18,5.71l0,75.36l-26.799,0l0,-131.026l23.201,0c1.319,0 2.473,0.03 3.463,0.09c0.989,0.06 1.873,0.24 2.653,0.54c0.779,0.3 1.483,0.764 2.113,1.394c0.629,0.629 1.244,1.514 1.843,2.653l33.723,66.457Z" style="fill:#fff;fill-rule:nonzero;"/><path d="M567.014,183.604c-0.839,1.859 -1.858,3.223 -3.057,4.092c-1.199,0.869 -3.118,1.304 -5.756,1.304l-20.863,0l17.986,-37.77l-37.23,-85.072l24.64,0c2.158,0 3.837,0.48 5.036,1.439c1.199,0.959 2.038,2.098 2.518,3.417l15.288,40.198c1.438,3.717 2.607,7.434 3.507,11.151c0.599,-1.918 1.259,-3.807 1.978,-5.665c0.72,-1.859 1.409,-3.747 2.068,-5.666l13.849,-40.018c0.48,-1.379 1.424,-2.533 2.833,-3.462c1.409,-0.929 2.923,-1.394 4.542,-1.394l22.482,0l-49.821,117.446Z" style="fill:#fff;fill-rule:nonzero;"/><path d="M666.295,64.719c7.074,0 13.519,1.11 19.334,3.328c5.816,2.218 10.807,5.395 14.974,9.532c4.166,4.137 7.404,9.158 9.712,15.063c2.308,5.905 3.462,12.545 3.462,19.919c0,7.434 -1.154,14.134 -3.462,20.099c-2.308,5.965 -5.546,11.031 -9.712,15.198c-4.167,4.167 -9.158,7.374 -14.974,9.622c-5.815,2.248 -12.26,3.373 -19.334,3.373c-7.134,0 -13.624,-1.125 -19.469,-3.373c-5.846,-2.248 -10.882,-5.455 -15.108,-9.622c-4.227,-4.167 -7.494,-9.233 -9.803,-15.198c-2.308,-5.965 -3.462,-12.665 -3.462,-20.099c0,-7.374 1.154,-14.014 3.462,-19.919c2.309,-5.905 5.576,-10.926 9.803,-15.063c4.226,-4.137 9.262,-7.314 15.108,-9.532c5.845,-2.218 12.335,-3.328 19.469,-3.328Zm0,75.45c6.415,0 11.136,-2.263 14.164,-6.79c3.027,-4.526 4.541,-11.405 4.541,-20.638c0,-9.233 -1.514,-16.097 -4.541,-20.594c-3.028,-4.496 -7.749,-6.744 -14.164,-6.744c-6.595,0 -11.421,2.248 -14.478,6.744c-3.058,4.497 -4.587,11.361 -4.587,20.594c0,9.233 1.529,16.112 4.587,20.638c3.057,4.527 7.883,6.79 14.478,6.79Z" style="fill:#fff;fill-rule:nonzero;"/><path d="M729.065,159.414l0,-93.256l17.266,0c1.739,0 3.192,0.39 4.361,1.169c1.17,0.78 1.994,1.949 2.473,3.508l1.619,5.395c1.799,-1.678 3.657,-3.237 5.576,-4.676c1.918,-1.439 3.972,-2.653 6.16,-3.642c2.188,-0.989 4.556,-1.769 7.104,-2.338c2.548,-0.57 5.321,-0.855 8.318,-0.855c5.096,0 9.608,0.885 13.535,2.653c3.926,1.769 7.239,4.227 9.937,7.374c2.698,3.148 4.736,6.895 6.115,11.241c1.379,4.347 2.068,9.068 2.068,14.164l0,59.263l-27.878,0l0,-59.263c0,-4.556 -1.049,-8.108 -3.147,-10.656c-2.098,-2.548 -5.186,-3.822 -9.263,-3.822c-3.057,0 -5.935,0.659 -8.633,1.978c-2.698,1.319 -5.276,3.088 -7.734,5.306l0,66.457l-27.877,0Z" style="fill:#fff;fill-rule:nonzero;"/><path d="M862.158,66.158l0,93.256l-27.877,0l0,-93.256l27.877,0Zm3.238,-25.539c0,2.218 -0.45,4.301 -1.349,6.25c-0.9,1.948 -2.129,3.657 -3.687,5.126c-1.559,1.468 -3.373,2.637 -5.441,3.507c-2.068,0.869 -4.272,1.304 -6.61,1.304c-2.278,0 -4.406,-0.435 -6.385,-1.304c-1.978,-0.87 -3.732,-2.039 -5.26,-3.507c-1.529,-1.469 -2.728,-3.178 -3.597,-5.126c-0.87,-1.949 -1.304,-4.032 -1.304,-6.25c0,-2.278 0.434,-4.407 1.304,-6.385c0.869,-1.979 2.068,-3.717 3.597,-5.216c1.528,-1.499 3.282,-2.668 5.26,-3.507c1.979,-0.84 4.107,-1.259 6.385,-1.259c2.338,0 4.542,0.419 6.61,1.259c2.068,0.839 3.882,2.008 5.441,3.507c1.558,1.499 2.787,3.237 3.687,5.216c0.899,1.978 1.349,4.107 1.349,6.385Z" style="fill:#fff;fill-rule:nonzero;"/><path d="M951.906,88.281c-0.839,1.019 -1.648,1.828 -2.428,2.428c-0.779,0.599 -1.888,0.899 -3.327,0.899c-1.379,0 -2.623,-0.33 -3.732,-0.989c-1.109,-0.66 -2.353,-1.394 -3.732,-2.204c-1.379,-0.809 -2.998,-1.543 -4.856,-2.203c-1.859,-0.659 -4.167,-0.989 -6.925,-0.989c-3.417,0 -6.369,0.63 -8.857,1.889c-2.488,1.259 -4.542,3.057 -6.161,5.395c-1.618,2.338 -2.817,5.201 -3.597,8.588c-0.779,3.388 -1.169,7.21 -1.169,11.466c0,8.933 1.724,15.798 5.171,20.594c3.447,4.796 8.199,7.194 14.254,7.194c3.237,0 5.8,-0.405 7.689,-1.214c1.888,-0.809 3.492,-1.709 4.811,-2.698c1.319,-0.989 2.533,-1.903 3.642,-2.743c1.109,-0.839 2.503,-1.259 4.182,-1.259c2.218,0 3.896,0.81 5.035,2.428l8.094,9.982c-2.878,3.298 -5.905,5.981 -9.083,8.049c-3.177,2.068 -6.43,3.687 -9.757,4.856c-3.327,1.169 -6.67,1.978 -10.027,2.428c-3.357,0.45 -6.625,0.675 -9.802,0.675c-5.696,0 -11.136,-1.08 -16.322,-3.238c-5.186,-2.158 -9.742,-5.291 -13.669,-9.397c-3.927,-4.107 -7.044,-9.158 -9.353,-15.153c-2.308,-5.995 -3.462,-12.83 -3.462,-20.504c0,-6.714 1.004,-12.994 3.013,-18.84c2.008,-5.845 4.976,-10.911 8.903,-15.198c3.927,-4.286 8.783,-7.658 14.568,-10.117c5.785,-2.458 12.485,-3.687 20.099,-3.687c7.314,0 13.729,1.169 19.245,3.508c5.515,2.338 10.491,5.755 14.928,10.251l-7.375,9.803Z" style="fill:#fff;fill-rule:nonzero;"/></g></g><defs><linearGradient id="_Linear1" x1="0" y1="0" x2="1" y2="0" gradientUnits="userSpaceOnUse" gradientTransform="matrix(73.6971,111.811,-111.811,73.6971,135.014,14.4188)"><stop offset="0" style="stop-color:#316da5;stop-opacity:1"/><stop offset="1" style="stop-color:#55a9f8;stop-opacity:1"/></linearGradient></defs></svg>